<?xml version="1.0" standalone="no"?>
<!DOCTYPE svg PUBLIC "-//W3C//DTD SVG 20010904//EN"
 "http://www.w3.org/TR/2001/REC-SVG-20010904/DTD/svg10.dtd">
<svg version="1.0" xmlns="http://www.w3.org/2000/svg"
 width="700.000000pt" height="700.000000pt" viewBox="0 0 700.000000 700.000000"
 preserveAspectRatio="xMidYMid meet">
<metadata>
Created by potrace 1.14, written by Peter Selinger 2001-2017
</metadata>
<g transform="translate(0.000000,700.000000) scale(0.100000,-0.100000)"
fill="#000000" stroke="none">
<path d="M6704 6596 c-534 -262 -6625 -3281 -6642 -3292 -34 -22 -62 -74 -62
-114 0 -41 29 -92 65 -116 15 -10 149 -42 313 -75 158 -32 543 -110 857 -174
314 -64 685 -139 826 -168 l257 -51 366 -971 c292 -772 373 -976 395 -999 35
-34 112 -47 154 -25 14 8 386 337 828 733 l802 718 36 -20 c20 -11 360 -192
756 -403 650 -347 725 -384 767 -384 55 0 95 25 120 76 22 47 441 5161 427
5213 -5 19 -25 48 -45 65 -52 46 -105 43 -220 -13z m-216 -2646 c-105 -1279
-192 -2327 -194 -2329 -6 -6 -2235 1186 -2234 1195 3 12 2612 3466 2615 3462
2 -2 -83 -1049 -187 -2328z m-935 1461 c-2504 -2144 -3118 -2669 -3121 -2667
-1 2 3 27 9 56 6 28 7 55 3 59 -5 5 -428 93 -941 197 -512 104 -930 190 -929
191 6 6 5792 2871 5799 2872 4 1 -365 -318 -820 -708z m174 -143 c-618 -817
-1855 -2457 -1873 -2483 -11 -16 -166 -392 -344 -835 -177 -443 -325 -808
-329 -812 -4 -4 -139 341 -300 768 l-293 776 49 43 c26 23 548 469 1158 992
611 522 1342 1148 1625 1391 283 243 516 441 518 442 1 0 -93 -127 -211 -282z
m-1435 -2911 l297 -164 -602 -539 c-331 -296 -622 -557 -646 -579 l-43 -40 14
35 c8 19 146 364 308 767 l294 732 40 -24 c23 -13 175 -97 338 -188z"/>
</g>
</svg>
